<?xml version="1.0" encoding="UTF-8"?>
<svg id="Layer_2" xmlns="http://www.w3.org/2000/svg" viewBox="0 0 287.1 287.1">
  <defs>
    <style>
      .cls-1 {
        fill: #ded3bf;
      }

      .cls-2 {
        fill: none;
        stroke: #b3a58d;
        stroke-miterlimit: 10;
        stroke-width: 8px;
      }

      .cls-3 {
        fill: #b3a58d;
      }

      .cls-4 {
        fill: #74ff7c;
      }

      .cls-5 {
        fill: #e6e7e8;
      }
    </style>
  </defs>
  <g id="Layer_1-2" data-name="Layer_1">
    <path class="cls-3" d="M143.55,0C64.27,0,0,64.27,0,143.55s64.27,143.55,143.55,143.55,143.55-64.27,143.55-143.55S222.83,0,143.55,0ZM143.55,217.44c-40.81,0-73.89-33.08-73.89-73.89s33.08-73.89,73.89-73.89,73.89,33.08,73.89,73.89-33.08,73.89-73.89,73.89Z"/>
    <path class="cls-1" d="M143.26,10C69.32,10,9.39,69.94,9.39,143.87s59.94,133.87,133.87,133.87,133.87-59.94,133.87-133.87S217.19,10,143.26,10ZM143.26,212.78c-38.06,0-68.91-30.85-68.91-68.91s30.85-68.91,68.91-68.91,68.91,30.85,68.91,68.91-30.85,68.91-68.91,68.91Z"/>
    <path class="cls-5" d="M143.26,48.39c-52.73,0-95.48,42.75-95.48,95.48s42.75,95.48,95.48,95.48,95.48-42.75,95.48-95.48-42.75-95.48-95.48-95.48ZM143.26,212.78c-38.06,0-68.91-30.85-68.91-68.91s30.85-68.91,68.91-68.91,68.91,30.85,68.91,68.91-30.85,68.91-68.91,68.91Z"/>
    <line class="cls-2" x1="27.13" y1="59.56" x2="27.13" y2="59.56"/>
    <circle class="cls-4" cx="257.82" cy="140.97" r="8.2"/>
  </g>
</svg>