<?xml version="1.0" encoding="UTF-8"?>
<svg id="Layer_2" xmlns="http://www.w3.org/2000/svg" viewBox="0 0 474.96 98.94">
  <defs>
    <style>
      .cls-1 {
        fill: #ded3bf;
      }

      .cls-2 {
        fill: none;
        stroke: #b3a58d;
        stroke-miterlimit: 10;
        stroke-width: 8px;
      }

      .cls-3 {
        fill: #b3a58d;
      }

      .cls-4 {
        fill: #74ff7c;
      }

      .cls-5 {
        fill: #e6e7e8;
      }
    </style>
  </defs>
  <g id="Layer_1-2" data-name="Layer_1">
    <path class="cls-3" d="M76.92,0C50.02,0,28.21,21.81,28.21,48.71s21.81,48.71,48.71,48.71,48.71-21.81,48.71-48.71S103.82,0,76.92,0ZM76.92,73.78c-13.85,0-25.07-11.23-25.07-25.07s11.23-25.07,25.07-25.07,25.07,11.23,25.07,25.07-11.23,25.07-25.07,25.07Z"/>
    <path class="cls-1" d="M76.82,3.39c-25.09,0-45.43,20.34-45.43,45.43s20.34,45.43,45.43,45.43,45.43-20.34,45.43-45.43S101.91,3.39,76.82,3.39ZM76.82,72.2c-12.91,0-23.38-10.47-23.38-23.38s10.47-23.38,23.38-23.38,23.38,10.47,23.38,23.38-10.47,23.38-23.38,23.38Z"/>
    <path class="cls-5" d="M76.82,16.42c-17.89,0-32.4,14.51-32.4,32.4s14.51,32.4,32.4,32.4,32.4-14.51,32.4-32.4-14.51-32.4-32.4-32.4ZM76.82,72.2c-12.91,0-23.38-10.47-23.38-23.38s10.47-23.38,23.38-23.38,23.38,10.47,23.38,23.38-10.47,23.38-23.38,23.38Z"/>
    <line class="cls-2" y1="8.12" x2="0" y2="8.12"/>
    <circle class="cls-4" cx="115.7" cy="47.84" r="2.78"/>
    <g>
      <path class="cls-1" d="M137.84,81.22V17.45h11.49v52.93h28.57v10.83h-40.05Z"/>
      <path class="cls-1" d="M175.54,57.28c0-4.09.89-8.05,2.68-11.88,1.79-3.83,4.31-6.75,7.59-8.77,3.27-2.02,6.93-3.03,10.96-3.03,6.24,0,11.35,2.29,15.33,6.86,3.98,4.58,5.98,10.36,5.98,17.34s-2.01,12.89-6.04,17.52-9.09,6.95-15.2,6.95c-3.78,0-7.38-.96-10.81-2.89-3.43-1.93-6.04-4.76-7.82-8.49-1.79-3.73-2.68-8.27-2.68-13.62ZM186.72,57.93c0,4.62.97,8.16,2.91,10.61,1.94,2.46,4.33,3.68,7.18,3.68s5.23-1.23,7.16-3.68c1.93-2.46,2.89-6.02,2.89-10.7s-.96-8.07-2.89-10.53c-1.93-2.46-4.31-3.68-7.16-3.68s-5.24,1.23-7.18,3.68c-1.94,2.46-2.91,5.99-2.91,10.61Z"/>
      <path class="cls-1" d="M216.15,57.28c0-4.09.89-8.05,2.68-11.88s4.31-6.75,7.59-8.77,6.93-3.03,10.96-3.03c6.23,0,11.35,2.29,15.33,6.86,3.98,4.58,5.98,10.36,5.98,17.34s-2.01,12.89-6.04,17.52c-4.03,4.63-9.09,6.95-15.2,6.95-3.78,0-7.38-.96-10.81-2.89s-6.03-4.76-7.82-8.49-2.68-8.27-2.68-13.62ZM227.32,57.93c0,4.62.97,8.16,2.91,10.61,1.94,2.46,4.33,3.68,7.18,3.68s5.23-1.23,7.16-3.68c1.93-2.46,2.89-6.02,2.89-10.7s-.96-8.07-2.89-10.53-4.31-3.68-7.16-3.68-5.24,1.23-7.18,3.68c-1.94,2.46-2.91,5.99-2.91,10.61Z"/>
      <path class="cls-1" d="M258.96,34.65h10.17v6.84c1.32-2.34,3.1-4.24,5.36-5.7,2.25-1.46,4.75-2.19,7.49-2.19,4.79,0,8.85,2.12,12.19,6.36,3.34,4.24,5.01,10.15,5.01,17.72s-1.68,13.82-5.05,18.13-7.44,6.47-12.23,6.47c-2.28,0-4.34-.51-6.19-1.54-1.85-1.02-3.8-2.78-5.84-5.26v23.46h-10.91V34.65ZM269.75,57.14c0,5.23.92,9.1,2.76,11.6,1.84,2.5,4.08,3.75,6.71,3.75s4.64-1.15,6.33-3.44c1.68-2.29,2.52-6.06,2.52-11.29,0-4.88-.87-8.51-2.6-10.88-1.73-2.37-3.88-3.55-6.44-3.55s-4.88,1.16-6.64,3.49c-1.76,2.33-2.64,5.77-2.64,10.33Z"/>
      <path class="cls-1" d="M314.09,81.22V16.93h18.44c6.99,0,11.54.32,13.66.96,3.26.96,5.99,3.06,8.19,6.29,2.2,3.23,3.3,7.4,3.3,12.52,0,3.95-.63,7.27-1.9,9.96-1.27,2.69-2.88,4.8-4.83,6.34-1.96,1.53-3.94,2.55-5.96,3.05-2.74.61-6.71.92-11.91.92h-7.49v24.25h-11.49ZM325.58,27.8v18.24h6.29c4.53,0,7.55-.34,9.08-1.01,1.53-.67,2.72-1.73,3.59-3.16.87-1.43,1.3-3.1,1.3-5,0-2.34-.61-4.27-1.82-5.79-1.22-1.52-2.76-2.47-4.62-2.85-1.37-.29-4.13-.44-8.27-.44h-5.55Z"/>
      <path class="cls-1" d="M356.56,57.28c0-4.09.89-8.05,2.68-11.88s4.31-6.75,7.59-8.77,6.93-3.03,10.96-3.03c6.23,0,11.35,2.29,15.33,6.86,3.98,4.58,5.98,10.36,5.98,17.34s-2.01,12.89-6.04,17.52c-4.03,4.63-9.09,6.95-15.2,6.95-3.78,0-7.38-.96-10.81-2.89s-6.04-4.76-7.82-8.49-2.68-8.27-2.68-13.62ZM367.74,57.93c0,4.62.97,8.16,2.91,10.61,1.94,2.46,4.33,3.68,7.18,3.68s5.23-1.23,7.16-3.68c1.93-2.46,2.89-6.02,2.89-10.7s-.96-8.07-2.89-10.53-4.31-3.68-7.16-3.68-5.24,1.23-7.18,3.68c-1.94,2.46-2.91,5.99-2.91,10.61Z"/>
      <path class="cls-1" d="M437.5,81.22h-10.13v-6.84c-1.68,2.66-3.67,4.64-5.96,5.94-2.29,1.3-4.6,1.95-6.93,1.95-4.74,0-8.79-2.16-12.17-6.47s-5.06-10.33-5.06-18.05,1.64-13.89,4.93-18c3.29-4.11,7.44-6.16,12.46-6.16,4.61,0,8.59,2.16,11.96,6.49v-23.16h10.91v64.29ZM408.39,56.92c0,4.97.61,8.57,1.82,10.79,1.76,3.22,4.22,4.82,7.38,4.82,2.51,0,4.64-1.21,6.4-3.62s2.64-6.01,2.64-10.81c0-5.35-.85-9.2-2.56-11.56-1.71-2.35-3.89-3.53-6.56-3.53s-4.76,1.16-6.5,3.49-2.62,5.8-2.62,10.42Z"/>
      <path class="cls-1" d="M436.46,67.93l10.95-1.89c.46,2.4,1.41,4.22,2.83,5.46,1.42,1.24,3.42,1.86,5.98,1.86,2.82,0,4.94-.58,6.37-1.75.96-.82,1.44-1.91,1.44-3.29,0-.94-.26-1.71-.78-2.32-.54-.58-1.76-1.12-3.65-1.62-8.8-2.19-14.37-4.2-16.73-6.01-3.26-2.51-4.89-6.01-4.89-10.48,0-4.04,1.41-7.43,4.23-10.17s7.19-4.12,13.12-4.12,9.83,1.04,12.57,3.11c2.74,2.08,4.63,5.15,5.67,9.21l-10.29,2.15c-.44-1.81-1.27-3.2-2.5-4.17-1.23-.96-2.98-1.45-5.26-1.45-2.87,0-4.93.45-6.17,1.36-.83.64-1.24,1.48-1.24,2.5,0,.88.36,1.62,1.09,2.24.98.82,4.38,1.97,10.19,3.46s9.87,3.32,12.17,5.48c2.28,2.19,3.42,5.25,3.42,9.17,0,4.27-1.58,7.94-4.74,11.01-3.16,3.07-7.83,4.61-14.01,4.61-5.62,0-10.06-1.29-13.33-3.86-3.27-2.57-5.41-6.07-6.42-10.48Z"/>
      <polyline class="cls-1" points="177.9 81.22 196.81 81.22 196.81 72.23 177.9 70.39"/>
    </g>
  </g>
</svg>